<?xml version="1.0" encoding="utf-8"?>
<!-- Generator: Adobe Illustrator 25.2.3, SVG Export Plug-In . SVG Version: 6.00 Build 0)  -->
<svg version="1.1" id="Layer_1" xmlns="http://www.w3.org/2000/svg" xmlns:xlink="http://www.w3.org/1999/xlink" x="0px" y="0px"
	 viewBox="0 0 7.4 14.3" style="enable-background:new 0 0 7.4 14.3;" xml:space="preserve">
<style type="text/css">
	.st0{fill:none;stroke:#000000;stroke-width:0.5;stroke-miterlimit:10;}
	.st1{fill:none;stroke:#000000;stroke-width:0.5;stroke-linecap:round;stroke-linejoin:round;stroke-miterlimit:10;}
	.st2{fill:none;stroke:#000000;stroke-width:0.5;stroke-linejoin:round;stroke-miterlimit:10;}
</style>
<g>
	<path class="st0" d="M2.3,7.9c-0.7,0-1.3,0-2,0c0-0.8,0-1.6,0-2.5c0.7,0,1.3,0,2,0c0-0.6,0-1.2,0-1.7c0-0.4,0-0.7,0.1-1.1
		c0.3-1.4,1.1-2.2,2.5-2.3c0.8-0.1,1.6,0,2.4,0c0,0.8,0,1.5,0,2.3c-0.2,0-0.4,0-0.7,0c-0.2,0-0.4,0-0.6,0C5,2.6,4.7,2.9,4.7,3.7
		c0,0.6,0,1.1,0,1.7c0.7,0,1.5,0,2.2,0c0,0.8,0,1.6,0,2.4c-0.7,0-1.5,0-2.2,0c0,2.1,0,4.1,0,6.2c-0.8,0-1.6,0-2.5,0
		C2.3,12,2.3,10,2.3,7.9z"/>
</g>
</svg>
