<svg xmlns="http://www.w3.org/2000/svg" viewBox="0 0 22.22 22.22"><defs><style>.cls-1{fill:#fff;}</style></defs><title>Asset 7</title><g id="Layer_2" data-name="Layer 2"><g id="Layer_1-2" data-name="Layer 1"><path class="cls-1" d="M16.09,0h-10A6.14,6.14,0,0,0,0,6.13v10a6.14,6.14,0,0,0,6.13,6.13h10a6.14,6.14,0,0,0,6.13-6.13v-10A6.14,6.14,0,0,0,16.09,0m4.16,16.09a4.17,4.17,0,0,1-4.16,4.16h-10A4.17,4.17,0,0,1,2,16.09v-10A4.17,4.17,0,0,1,6.13,2h10a4.17,4.17,0,0,1,4.16,4.16Z"/><path class="cls-1" d="M11.11,5.38a5.73,5.73,0,1,0,5.73,5.73,5.74,5.74,0,0,0-5.73-5.73m0,9.48a3.76,3.76,0,1,1,3.75-3.75,3.75,3.75,0,0,1-3.75,3.75"/><path class="cls-1" d="M17.07,3.71a1.46,1.46,0,0,0-1,.43,1.47,1.47,0,0,0-.42,1,1.49,1.49,0,0,0,.42,1,1.45,1.45,0,0,0,2.47-1,1.43,1.43,0,0,0-.42-1,1.46,1.46,0,0,0-1-.43"/></g></g></svg>