<?xml version="1.0" encoding="utf-8"?>
<!-- Generator: Adobe Illustrator 25.2.3, SVG Export Plug-In . SVG Version: 6.00 Build 0)  -->
<svg version="1.1" id="Layer_1" xmlns="http://www.w3.org/2000/svg" xmlns:xlink="http://www.w3.org/1999/xlink" x="0px" y="0px"
	 viewBox="0 0 14.4 14.2" style="enable-background:new 0 0 14.4 14.2;" xml:space="preserve">
<style type="text/css">
	.st0{fill:none;stroke:#000000;stroke-width:0.5;stroke-miterlimit:10;}
	.st1{fill:none;stroke:#000000;stroke-width:0.5;stroke-linecap:round;stroke-linejoin:round;stroke-miterlimit:10;}
	.st2{fill:none;stroke:#000000;stroke-width:0.5;stroke-linejoin:round;stroke-miterlimit:10;}
</style>
<g>
	<circle class="st0" cx="1.9" cy="1.9" r="1.7"/>
	<path class="st0" d="M2.8,14H0.9c-0.3,0-0.6-0.2-0.6-0.6V5c0-0.3,0.2-0.6,0.6-0.6h1.9c0.3,0,0.6,0.2,0.6,0.6v8.4
		C3.3,13.7,3.1,14,2.8,14z"/>
	<path class="st2" d="M5,4.5v9.4h3.1V8.2C8.3,7.5,8.9,7,9.6,7c0.8-0.1,1.5,0.5,1.6,1.2c0,1.9,0,3.7,0,5.6h2.9c0-2.3,0-4.6,0-7
		c-0.4-1.3-1.6-2.3-3-2.4C9.8,4.3,8.5,4.9,7.8,5.9c0-0.5,0-1,0-1.5C6.9,4.5,5.9,4.5,5,4.5z"/>
</g>
</svg>
