<?xml version="1.0" encoding="utf-8"?>
<!-- Generator: Adobe Illustrator 25.2.3, SVG Export Plug-In . SVG Version: 6.00 Build 0)  -->
<svg version="1.1" id="Layer_1" xmlns="http://www.w3.org/2000/svg" xmlns:xlink="http://www.w3.org/1999/xlink" x="0px" y="0px"
	 viewBox="0 0 12.4 11.1" style="enable-background:new 0 0 12.4 11.1;" xml:space="preserve">
<style type="text/css">
	.st0{fill:none;stroke:#000000;stroke-width:0.5;stroke-miterlimit:10;}
	.st1{fill:none;stroke:#000000;stroke-width:0.5;stroke-linecap:round;stroke-linejoin:round;stroke-miterlimit:10;}
	.st2{fill:none;stroke:#000000;stroke-width:0.5;stroke-linejoin:round;stroke-miterlimit:10;}
</style>
<path class="st1" d="M11.3,3.2c0,0.3,0.5,3.7-1.9,5.9c-2.2,2.1-5.9,2.3-8.8,0.3C1,9.5,1.8,9.6,2.7,9.2C3.6,8.9,4.2,8.3,4.4,8
	C4.1,8,3.4,8,2.7,7.7C2.1,7.4,1.6,7,1.4,6.8c0.2,0,0.4,0,0.7-0.2c0.2-0.1,0.4-0.2,0.5-0.3C2.3,6.2,1.5,6,0.9,5.2
	C0.5,4.7,0.3,4.1,0.2,3.8C0.7,3.9,1.2,4,1.6,4.1C1.5,4,0.9,3.5,0.8,2.6c0-0.8,0.3-1.3,0.4-1.5c0.2,0.5,0.9,1.7,2.2,2.5
	c1.1,0.7,2.2,0.8,2.7,0.8C6,3.2,6.4,2,7.3,1.5c1.2-0.7,2.4-0.1,2.5-0.1c0.6-0.4,1.2-0.7,1.8-1.1l-1.1,2.1l1.5-0.3L11.3,3.2z"/>
</svg>
