<svg xmlns="http://www.w3.org/2000/svg" viewBox="0 0 91.01 125.02"><defs><style>.cls-1{fill:none;stroke:#2e388f;stroke-linecap:round;stroke-linejoin:round;stroke-width:3px;}</style></defs><title>Asset 8</title><g id="Layer_2" data-name="Layer 2"><g id="Layer_1-2" data-name="Layer 1"><path class="cls-1" d="M3.86,79.65c-2.67-13.38-2.62-22.84-2-29.13.45-4.72,1.33-9,1-16.14-.11-2.58-.17-5.92-.14-11a30.1,30.1,0,0,1,1.32-8.89c1-3,2.41-6,5.21-7.9C13,4,15.71,5.09,27.23,2.24c1.2-.29,2.18-.56,2.84-.74"/><path class="cls-1" d="M45.5,88.32a116.62,116.62,0,0,1-29-3.39h0"/><path class="cls-1" d="M14.62,93.12a72,72,0,0,1,19.43,12.62L45.5,117.25"/><path class="cls-1" d="M76.38,93.12a72,72,0,0,0-19.44,12.62L45.49,117.25v6.27"/><path class="cls-1" d="M18.26,37.87c.1,4.89.09,12.53-.39,18.29"/><path class="cls-1" d="M22.21,45.4a39.73,39.73,0,0,1,2.3,9.42,34.72,34.72,0,0,1-1.77,13c-.26.75-.65,1.73-2,5.45Q19,78.13,17.26,83s-.3.71-.73,2S15.54,88,15,90.3c-1.75,7.64-3.09,20.25,2.25,33.22"/><path class="cls-1" d="M68.6,45.56a36.42,36.42,0,0,0-2.1,9.26,34.6,34.6,0,0,0,1.76,13c.26.75.65,1.73,2,5.45,1.2,3.25,2.35,6.49,3.48,9.7,0,0,.3.71.73,2A52.25,52.25,0,0,1,76,90.3c1.75,7.64,3.09,20.25-2.25,33.22"/><path class="cls-1" d="M87.14,79.65c2.68-13.38,2.63-22.84,2-29.13-.44-4.72-1.32-9-1-16.14.1-2.58.17-5.92.14-11A30.1,30.1,0,0,0,87,14.47c-1-3-2.42-6-5.22-7.9C78,4,75.29,5.09,63.78,2.24c-1.2-.29-2.18-.56-2.84-.74"/><path class="cls-1" d="M45.5,88.32a116.56,116.56,0,0,0,29-3.39h0"/><path class="cls-1" d="M72.74,37.87c-.1,4.89-.08,12.53.4,18.29"/><path class="cls-1" d="M45.5,26.36a30.19,30.19,0,0,0-18-4.31,28.06,28.06,0,0,0-7.83,1.86C18.53,27.3,17,32,18.26,37.87a21.22,21.22,0,0,0,1.6,4.53,9.44,9.44,0,0,0,6.39,5l.8.18a31.77,31.77,0,0,0,7.46.77,23.74,23.74,0,0,0,8.29-1.83,9.31,9.31,0,0,1,2.7-.83,9,9,0,0,1,2.69.83,23.92,23.92,0,0,0,8.31,1.83A31.77,31.77,0,0,0,64,47.59l.8-.18a9.45,9.45,0,0,0,6.39-5,21.13,21.13,0,0,0,1.59-4.52c1.33-5.84-.26-10.57-1.4-14a28.24,28.24,0,0,0-7.83-1.86A30.22,30.22,0,0,0,45.5,26.36Z"/></g></g></svg>