<?xml version="1.0" encoding="utf-8"?>
<!-- Generator: Adobe Illustrator 24.0.2, SVG Export Plug-In . SVG Version: 6.00 Build 0)  -->
<svg version="1.1" id="Capa_1" xmlns="http://www.w3.org/2000/svg" xmlns:xlink="http://www.w3.org/1999/xlink" x="0px" y="0px"
	 viewBox="0 0 512 390" style="enable-background:new 0 0 512 390;" xml:space="preserve">
<style type="text/css">
	.st0{fill:#FFFFFF;}
</style>
<g>
	<g>
		<path class="st0" d="M467,0H45C20.2,0,0,20.2,0,45v300c0,24.7,20.1,45,45,45h422c24.7,0,45-20.1,45-45V45C512,20.3,491.9,0,467,0z
			 M460.8,30L257,233.8L51.4,30H460.8z M30,338.8V51.1l144.5,143.2L30,338.8z M51.2,360l144.6-144.6l50.7,50.2
			c5.9,5.8,15.3,5.8,21.2,0l49.4-49.4L460.8,360H51.2z M482,338.8L338.2,195L482,51.2V338.8z"/>
	</g>
</g>
</svg>
