<svg xmlns="http://www.w3.org/2000/svg" viewBox="0 0 119.15 135.63"><defs><style>.cls-1{fill:none;stroke:#2e388f;stroke-linecap:round;stroke-linejoin:round;stroke-width:3px;}</style></defs><title>Asset 4</title><g id="Layer_2" data-name="Layer 2"><g id="Layer_1-2" data-name="Layer 1"><path class="cls-1" d="M70.17,90.19c-2.07,1-5.55,2.92-9.83,2.94s-7.73-2-9.82-2.94l1.71-2.28a5.38,5.38,0,0,1,2.69-2A4.74,4.74,0,0,1,56,85.77c2.15-.18,2.65.67,4.39.7s2.23-.84,4.39-.62a4.54,4.54,0,0,1,1.35.31,5.37,5.37,0,0,1,2.29,1.76Z"/><path class="cls-1" d="M53.73,97.52l1.62,1.26a7,7,0,0,0,2.64.75,5.52,5.52,0,0,0,.58,0h3.7a7.73,7.73,0,0,0,1.08-.08,7,7,0,0,0,2.5-.9l1-.8"/><path class="cls-1" d="M66,73.22c-.15.64-.63.78-2.51,2.08a6.84,6.84,0,0,1-7,0C54.58,74,54.1,73.86,54,73.22"/><path class="cls-1" d="M28,53.59a4.85,4.85,0,0,1,2.82-1,4.93,4.93,0,0,1,3.06,1,11.3,11.3,0,0,0,4.89,2.5,11.8,11.8,0,0,0,3.85.21,28.79,28.79,0,0,0,5.08-1.22l2.93-.83"/><path class="cls-1" d="M34.18,58.27c.74-1.9,3-2.34,3.6-2.43"/><path class="cls-1" d="M91.66,53.59a4.85,4.85,0,0,0-2.82-1,4.93,4.93,0,0,0-3.06,1,11.3,11.3,0,0,1-4.89,2.5,11.8,11.8,0,0,1-3.85.21A28.79,28.79,0,0,1,72,55.11L69,54.28"/><path class="cls-1" d="M81.9,55.84c.6.09,2.86.53,3.6,2.43"/><path class="cls-1" d="M21.78,79.57a113.5,113.5,0,0,1-3.89-30.44A78.3,78.3,0,0,1,23.3,37c2.8-5.08,7.89-14.11,18-21.72a59.1,59.1,0,0,1,12.11-7"/><path class="cls-1" d="M98.35,79.29A112.52,112.52,0,0,0,101.68,49c-.57-1.34-1.42-3.29-2.52-5.61C90,24.07,75.38,8.72,55,1.5"/><path class="cls-1" d="M50.52,42.59s-2.24-3-7.46-4a41,41,0,0,0-11.68,0"/><path class="cls-1" d="M66.42,42.53s2.24-3,7.46-4a41,41,0,0,1,11.68,0"/><path class="cls-1" d="M50.52,129.36c3.18-4.7,3.11-8.18,2.82-10-.64-4-3.55-6.76-9.29-12.11,0,0-6.43-6-8.75-8.65l-1-1.17L31.9,94.78c-5.43-6.13-6.64-6.64-7.93-7.69a6.28,6.28,0,0,0-8.25.4L25,101.33l3.64,8.17"/><path class="cls-1" d="M33.15,134.13l-3.55-5.6c-3.19-3-20-24.39-24.35-31.2a12.26,12.26,0,0,1-2.88-6.78c-.45-4.68-1.08-12.3-.8-15.3L5.72,52.49C5.78,52,6.34,52,7,52.33a6.2,6.2,0,0,1,3,3.19c.89,2-.25,5.61-.55,8.4V75.06l1,3,2,4.63"/><path class="cls-1" d="M68.62,129.36c-3.17-4.7-3.1-8.18-2.82-10,.64-4,3.56-6.76,9.3-12.11,0,0,6.43-6,8.75-8.65l1-1.17c.69-.79,1.49-1.7,2.38-2.69,5.42-6.13,6.64-6.64,7.93-7.69a6.28,6.28,0,0,1,8.25.4l-9.27,13.84c-1.22,2.72-2.43,5.45-3.65,8.17"/><path class="cls-1" d="M86,134.13l3.54-5.6c3.2-3,20-24.39,24.35-31.2a12.19,12.19,0,0,0,2.88-6.78c.45-4.68,1.09-12.3.81-15.3l-4.16-22.76c0-.54-.61-.45-1.26-.16a6.26,6.26,0,0,0-3.06,3.19c-.88,2,.26,5.61.56,8.4V75.06l-1,3-2,4.63"/><path class="cls-1" d="M53.45,117.78a12.87,12.87,0,0,0,12.55,0"/><path class="cls-1" d="M17.89,49.13s-8-11-8.65-17.1"/><path class="cls-1" d="M101.82,49.13s8.05-11,8.65-17.1"/></g></g></svg>