<svg xmlns="http://www.w3.org/2000/svg" viewBox="0 0 110.47 111.9"><defs><style>.cls-1{fill:none;stroke:#2e388f;stroke-linecap:round;stroke-linejoin:round;stroke-width:3px;}</style></defs><title>Asset 5</title><g id="Layer_2" data-name="Layer 2"><g id="Layer_1-2" data-name="Layer 1"><polyline class="cls-1" points="74.27 36.67 74.28 36.67 93.83 36.72 97.17 1.5"/><line class="cls-1" x1="51.62" y1="1.5" x2="54.32" y2="36.63"/><path class="cls-1" d="M93.83,36.72,79.32,49.37v6.82a1.62,1.62,0,0,1-1.62,1.61H70.56a1.63,1.63,0,0,1-1.62-1.62l0-6.83L54.32,36.63H64"/><path class="cls-1" d="M1.5,31.43a33,33,0,0,1,19,1.6,40.5,40.5,0,0,1,9.17,5.21c2.49,1.88,10.86,8.36,14.27,19.81a35.66,35.66,0,0,1,1.2,5.9S59.07,79.32,63.62,86.18a10,10,0,0,1-1.87,13L41.28,82.43l-12.37-7"/><path class="cls-1" d="M69.37,97.91,87,99.6c4.45-.06,10.33-1.32,13.36.38a9.86,9.86,0,0,1,4.58,5.31c.36,1.08.42,2-.44,2l-36.6,3.14c-4.79,0-16.73-2.16-24.06-3.57a19.3,19.3,0,0,1-10.27-5.58l-27-28A24.24,24.24,0,0,0,1.72,68.6"/><path class="cls-1" d="M73.74,91.17l9.83.94c4.8,0,11.12-.16,16.22-.19a9.68,9.68,0,0,1,3.6.69c.37.14.76.3,1.13.46a7.51,7.51,0,0,1,4.13,4.06,4.68,4.68,0,0,1,.18.48,2.24,2.24,0,0,1-2.11,3h-5.4"/><path class="cls-1" d="M99.55,89.89s1.91-5.9-12-6.21"/><path class="cls-1" d="M89.74,80.13a2.41,2.41,0,0,0,1.59-2.48A3.32,3.32,0,0,0,89.07,75c-3.21-1.55-6.71-2.56-9.71-4.53s-6.11-5.08-6-9.08a20.78,20.78,0,0,1-1.64,7.27c-.37,1-1,2-1.44,3a4.18,4.18,0,0,0,2.37,5.7h0a18.7,18.7,0,0,0,5.69.79"/><path class="cls-1" d="M67.62,77.35A4.36,4.36,0,0,0,67,81.2a3.57,3.57,0,0,0,1.61,1.64c2,1.12,3.7.3,6.8.25a18.72,18.72,0,0,1,4.92.59"/><line class="cls-1" x1="79.32" y1="49.37" x2="73.2" y2="50.36"/><line class="cls-1" x1="79.32" y1="53.65" x2="74.98" y2="54.46"/></g></g></svg>