<svg xmlns="http://www.w3.org/2000/svg" viewBox="0 0 53.96 64.36"><defs><style>.cls-1{isolation:isolate;}.cls-2{fill:none;stroke:#fff;stroke-miterlimit:10;stroke-width:1.29px;}</style></defs><title>Asset 1</title><g id="Layer_2" data-name="Layer 2"><g id="Layer_1-2" data-name="Layer 1"><g class="cls-1"><path class="cls-2" d="M2082.44,611.87c14.14,10.16,28.35,14.58,31.73,9.87s-5.32-16.78-19.46-26.94-28.35-14.59-31.74-9.88S2068.3,601.7,2082.44,611.87Zm12.27,0c-14.14,10.16-28.35,14.58-31.74,9.87s5.33-16.78,19.47-26.94,28.35-14.59,31.73-9.88S2108.85,601.7,2094.71,611.87Zm4.37-8.54c0,17.42-4.7,31.53-10.51,31.53s-10.51-14.11-10.51-31.53,4.71-31.53,10.51-31.53S2099.08,585.92,2099.08,603.33Z" transform="translate(-2061.59 -571.15)"/></g></g></g></svg>