<svg xmlns="http://www.w3.org/2000/svg" viewBox="0 0 133.98 111.64"><defs><style>.cls-1{fill:none;stroke:#2e388f;stroke-linecap:round;stroke-linejoin:round;stroke-width:3px;}</style></defs><title>Asset 6</title><g id="Layer_2" data-name="Layer 2"><g id="Layer_1-2" data-name="Layer 1"><path class="cls-1" d="M21,18.8c5.1,4.78,10.17,9.58,15.14,14.5C40.94,38,47.44,44.09,55.75,50.94c7.06,5.84,14,11.89,20.85,17.92a82.27,82.27,0,0,0,11.79,8.77c12.74,7.57,24.59,15.5,35.79,25.27a9.58,9.58,0,0,0,4.75,2.25l1.9.33a2,2,0,0,1,.64,3.67l-1.32.74a2,2,0,0,1-1.08.24A117.78,117.78,0,0,1,108.44,107c-7-1.69-9.31-1.07-12.24-.36a21.31,21.31,0,0,0-2.19.68l-5.09,1.47a7,7,0,0,1-4.07-.76c-2.81-1.44-4.1-4.2-4.56-7.14a19.51,19.51,0,0,1-.14-4.57s0,0,0,0A8.35,8.35,0,0,0,80.07,93c-.51-1.66-2.12-2.74-3.72-3.43C69,86.42,62.06,82.19,55,78.31c0,0-5.65-2.67-13.61-6.87"/><path class="cls-1" d="M1.5,56.28l9.64,11.43c1.22,1.25,2.91,3.62,2.74,5.34a8.21,8.21,0,0,1-1.16,3s0,0,0,0a20.18,20.18,0,0,0-1.64,4.28c-.71,2.89-.57,5.93,1.45,8.34A7,7,0,0,0,16,91l5.27.6a21.72,21.72,0,0,1,2.28.22c3,.49,5.35.79,11.17,5A115.67,115.67,0,0,0,52.5,107.73a2.15,2.15,0,0,0,1.09.18l1.51-.18a2,2,0,0,0,.82-3.62l-1.62-1a9.76,9.76,0,0,1-3.52-3.91C44.21,85.83,36.34,74,27.5,62a75,75,0,0,1-6.61-10.89c-.3-.57-.59-1.16-.87-1.74C16,41.19,12,33,7.68,24.85"/><path class="cls-1" d="M46.25,18.8A10.26,10.26,0,0,1,46.77,25c-.46,1.89-1.4,3.34-.66,5.44a4.28,4.28,0,0,0,1.07,1.7c2.63,2.39,7.41.68,6.44-3.21-.22-.89-.74-1.68-1-2.56C52,24.16,53.9,22.68,56,23.16a4.19,4.19,0,0,1,2.28,1.37c3,3.42-2.44,7.43-1.79,11.06a4.45,4.45,0,0,0,2,2.8,5.55,5.55,0,0,0,8.68-4.82C67.06,31.26,66,29.11,65,27s-2-4.26-2-6.57"/><path class="cls-1" d="M119.83,9.27a7.26,7.26,0,0,0-7.22-7.43L52.14,1.5a7.71,7.71,0,0,0-1.79,15.25,7.26,7.26,0,0,0,1.42.16l60.86-.54A7.27,7.27,0,0,0,119.83,9.27Z"/><path class="cls-1" d="M52.84,54.26c2.39,2.19,1.53,2.35.93,5.1s1.36,2.22,1,4.58A2.71,2.71,0,0,1,54,65.35a4.74,4.74,0,0,1-6.62,0l-17.84-17a4.84,4.84,0,0,1-.74-6.19,4.78,4.78,0,0,0,1.06-3.49.12.12,0,0,0,0-.08,2,2,0,0,1,3.28-1.8"/></g></g></svg>