<svg id="Layer_1" data-name="Layer 1" xmlns="http://www.w3.org/2000/svg" xmlns:xlink="http://www.w3.org/1999/xlink" viewBox="0 0 420.75 109.98"><defs><style>.cls-1{fill:none;}.cls-2{clip-path:url(#clip-path);}.cls-3{clip-path:url(#clip-path-2);}</style><clipPath id="clip-path"><rect class="cls-1" x="-1413.04" y="-304.73" width="1920" height="1080"/></clipPath><clipPath id="clip-path-2"><rect class="cls-1" width="420.75" height="109.98"/></clipPath></defs><title>Artboard 4@6x-100</title><g class="cls-2"><path d="M32.58,46.49H17.91L14,55H9.35L22.28,27.88h6L41.25,55H36.56ZM31.3,43.78,25.22,30.89l-6,12.89Z"/><rect x="43.7" y="27.49" width="4.26" height="27.48"/><rect x="53.75" y="27.49" width="4.26" height="27.48"/></g><g class="cls-3"><path d="M84.22,45.37H65.91c0,4.72,3.18,7.67,7.43,7.67,3.53,0,6.43-2.06,7-4.92l3.76.23c-.66,4.22-5.08,7.4-10.92,7.4-6.66,0-11.61-4.07-11.61-10.53s4.91-10.57,11.53-10.57c6.43,0,11.19,3.87,11.19,9.64a5.64,5.64,0,0,1-.08,1.08m-4.14-2c0-3.72-3-6.39-7-6.39A6.81,6.81,0,0,0,66,43.4Z"/><path d="M88.28,35.42h4.26l-.2,5h.35a6.23,6.23,0,0,1,6.51-5.27,12.64,12.64,0,0,1,2.16.23l-.11,3.6a12.44,12.44,0,0,0-2.63-.31c-3.92,0-6.08,2.75-6.08,7.59V55H88.28Z"/><path d="M127.29,56.52c0,4.33-5.19,6.93-13.2,6.93-7.35,0-11.77-2.32-11.77-5.92,0-2,1.44-3.6,3.72-4.3A3.63,3.63,0,0,1,103.56,50c0-2,1.71-3.22,4.38-3.29v-.2a5.72,5.72,0,0,1-3.68-5.07c0-4,4.26-6.77,10.61-6.77a15.33,15.33,0,0,1,6.5,1.28c.62-2.87,2.82-4.3,5.69-4.22l.12,2.74c-2.37-.07-3.84.78-4.26,2.37a5.64,5.64,0,0,1,2.4,4.53c0,3.94-4.07,6.69-10.22,6.69-2.71,0-4.53-.66-6.12-.66-1.35,0-2.2.62-2.2,1.55,0,1.09,1.39,1.78,3.71,1.78h7.4c5.88,0,9.4,2.21,9.4,5.81m-4.22.73c0-2-2-3.25-5.18-3.25h-7.4a12,12,0,0,1-2-.15A4,4,0,0,0,106.51,57c0,2.67,3.09,4.38,8.13,4.38s8.43-1.63,8.43-4.15m-14.59-15.9c0,2.71,2.67,4.64,6.46,4.64,3.57,0,6.16-1.86,6.16-4.57s-2.56-4.64-6.39-4.64c-3.6,0-6.23,1.82-6.23,4.57"/><path d="M177.5,44.09V55h-4.26V44.56c0-4.18-2.24-6.7-5.92-6.7s-6.08,2.6-6.08,6.93V55H157V35.42h4.22l0,4.84h.3c.89-3.21,3.72-5.22,7.51-5.22,5.27,0,8.52,3.44,8.52,9.05"/><path d="M139.37,34.73c4,0,7.47,2.16,8.44,5.14h.2V35.42h4.25V55H148V50.48h-.2c-1,3.06-4.45,5.15-8.36,5.15-6.5,0-11-4.49-11-10.49s4.68-10.41,11-10.41m1,18.38a7.61,7.61,0,0,0,7.82-7.93,7.51,7.51,0,0,0-7.59-7.9,7.63,7.63,0,0,0-7.82,8,7.47,7.47,0,0,0,7.59,7.85"/><path d="M215.89,46.52H201.22L197.27,55h-4.61L205.59,27.9h6l13,27.09h-4.69Zm-1.28-2.71-6.08-12.89-6,12.89Z"/><path d="M247.58,45.39H229.27c0,4.73,3.18,7.67,7.43,7.67,3.53,0,6.43-2.05,7-4.92l3.75.23c-.65,4.22-5.06,7.4-10.91,7.4-6.66,0-11.61-4.07-11.61-10.53s4.91-10.57,11.53-10.57c6.43,0,11.19,3.87,11.19,9.64a5.64,5.64,0,0,1-.08,1.08m-4.14-2c0-3.71-3-6.38-7-6.38a6.8,6.8,0,0,0-7.12,6.46Z"/><path d="M250.41,48.84l3.83-.19c.58,2.94,3.14,4.83,7.05,4.83,3.13,0,5.3-1.2,5.3-3.21,0-1.74-1.47-2.86-4.22-3.25l-4.22-.5c-4.68-.58-6.73-2.75-6.73-5.65,0-3.68,3.67-6.12,8.94-6.12,5.65,0,9.4,2.75,9.83,6.7l-3.79.15c-.39-2.94-2.75-4.68-6.2-4.68-2.94,0-4.87,1.27-4.87,3.25,0,1.62,1.23,2.63,3.48,2.94l4.26.54c4.57.54,7.66,2.48,7.66,5.92,0,3.84-4.06,6.16-9.6,6.16-6,0-10-2.71-10.72-6.89"/><path d="M310.62,44.12V55h-4.26V44.58c0-4.18-2.21-6.7-5.88-6.7s-6.08,2.6-6.08,6.93V55h-4.26V27.51h4.26V40.28h.23c.89-3.21,3.72-5.22,7.47-5.22,5.31,0,8.52,3.44,8.52,9.06"/><path d="M336.47,45.39H318.16c0,4.73,3.18,7.67,7.43,7.67,3.53,0,6.43-2.05,7-4.92l3.75.23c-.65,4.22-5.07,7.4-10.91,7.4-6.66,0-11.61-4.07-11.61-10.53s4.91-10.57,11.53-10.57c6.43,0,11.19,3.87,11.19,9.64a5.64,5.64,0,0,1-.08,1.08m-4.14-2c0-3.71-3-6.38-7-6.38a6.8,6.8,0,0,0-7.12,6.46Z"/><path d="M355.76,29.79c0-1.46,1.17-2.4,2.92-2.4s3,.94,3,2.4-1.18,2.37-3,2.37-2.92-.94-2.92-2.37M360.81,55h-4.26V35.45h4.26Z"/><path d="M365.17,45.28c0-6.43,5.15-10.61,12-10.61,6.31,0,10.8,3.49,11.22,8.21l-4.06.15c-.39-3.29-3.37-5.73-7.2-5.73-4.49,0-7.63,3.33-7.63,7.86A7.49,7.49,0,0,0,377.29,53c3.87,0,7-2.32,7.39-5.65l4,.12c-.43,4.68-4.88,8.32-11.46,8.32-6.78,0-12-4-12-10.49"/><path d="M391.26,48.84l3.83-.19c.58,2.94,3.14,4.83,7.05,4.83,3.13,0,5.3-1.2,5.3-3.21,0-1.74-1.47-2.86-4.22-3.25l-4.22-.5c-4.68-.58-6.73-2.75-6.73-5.65,0-3.68,3.67-6.12,8.94-6.12,5.65,0,9.4,2.75,9.83,6.7l-3.79.15c-.39-2.94-2.75-4.68-6.2-4.68-2.94,0-4.87,1.27-4.87,3.25,0,1.62,1.23,2.63,3.48,2.94l4.26.54c4.56.54,7.66,2.48,7.66,5.92,0,3.84-4.06,6.16-9.6,6.16-6,0-10-2.71-10.72-6.89"/><path d="M278.61,38.12h6.69V35.45h-6.69V30.22h-4.22v17.5c0,5.15,2.78,7.58,7,7.58a16.2,16.2,0,0,0,3.95-.46l0-3a11.63,11.63,0,0,1-2.63.35c-2.67,0-4.18-1.78-4.18-5Z"/><path d="M344.51,38.12h6.69V35.45h-6.69V30.22h-4.22v17.5c0,5.15,2.79,7.58,7,7.58a16.2,16.2,0,0,0,3.95-.46l0-3a11.63,11.63,0,0,1-2.63.35c-2.67,0-4.18-1.78-4.18-5Z"/><path d="M248.89,76.17v3.71a10.91,10.91,0,0,0,.23,2.47h-1.53a7.37,7.37,0,0,1-.13-1.4h0a3.75,3.75,0,0,1-3.35,1.61c-2,0-3.27-1.19-3.27-2.83s.89-2.61,3.67-3c.86-.13,2-.26,2.8-.32V76a2,2,0,0,0-2.19-2.27,2,2,0,0,0-2.21,1.93H241.2c.09-1.83,1.43-3.22,3.88-3.22s3.81,1.2,3.81,3.75m-1.62,1.46c-.74.06-1.79.18-2.53.31-1.66.25-2.23.72-2.23,1.67s.72,1.66,2,1.66a2.8,2.8,0,0,0,2-.76,2.78,2.78,0,0,0,.78-2.29Z"/><path d="M259.83,76.45v5.9h-1.67V76.59c0-2-.84-2.74-2.23-2.74s-2.51,1-2.51,3v5.53h-1.68V72.69h1.62V74h0a3.42,3.42,0,0,1,2.93-1.48c2.21,0,3.5,1.33,3.5,4"/><path d="M269,78.32l-1.48,4h-1.87l5.14-13.56h2.38l5.16,13.56h-1.89l-1.46-4Zm5-2.78c-.69-1.88-1.31-3.63-2-5.52h0c-.65,1.89-1.27,3.64-2,5.52l-.46,1.24h4.86Z"/><path d="M281.64,74a3.31,3.31,0,0,1,2.95-1.58c2.46,0,4,2,4,5.06s-1.58,5.08-4.05,5.08a3.25,3.25,0,0,1-3-1.63h0v1.4h-1.66V68.8h1.68V74Zm-.11,3.48c0,2.3,1,3.73,2.63,3.73s2.72-1.46,2.72-3.73-1.07-3.71-2.72-3.71-2.63,1.43-2.63,3.71"/><path d="M292.6,74a3.31,3.31,0,0,1,2.95-1.58c2.46,0,4,2,4,5.06s-1.58,5.08-4.06,5.08A3.24,3.24,0,0,1,292.58,81h0v1.4h-1.66V68.8h1.68V74Zm-.11,3.48c0,2.3,1,3.73,2.63,3.73s2.72-1.46,2.72-3.73-1.07-3.71-2.72-3.71-2.63,1.43-2.63,3.71"/><path d="M304.41,82.36,299.75,68.8h1.82l2.08,6c.66,1.92,1.27,3.86,1.88,5.8h0c.61-1.94,1.24-3.88,1.9-5.8l2.06-6h1.85l-4.69,13.56Z"/><path d="M313,68.8h1.68v1.89H313Zm0,3.89h1.68v9.67H313Z"/><path d="M324,79.46h1.71a4,4,0,0,1-4.27,3.16c-2.85,0-4.54-2.07-4.54-5.23,0-2.86,1.67-5,4.49-5a4.12,4.12,0,0,1,4.22,3.37,8.68,8.68,0,0,1,.19,2.07h-7.23c.08,2.38,1.3,3.47,2.87,3.47A2.41,2.41,0,0,0,324,79.46m-5.41-2.87h5.56c-.17-1.89-1.28-2.88-2.76-2.88s-2.63,1-2.8,2.88"/><path d="M340.44,76.11h-1.75a2.38,2.38,0,0,0-2.4-2.32c-1.71,0-2.76,1.43-2.76,3.73s1.05,3.73,2.76,3.73a2.48,2.48,0,0,0,2.4-2.45h1.75a4,4,0,0,1-4.13,3.82c-2.8,0-4.55-2-4.55-5.1s1.75-5.1,4.55-5.1a3.93,3.93,0,0,1,4.13,3.69"/><path d="M351.23,77.52c0,3.16-1.77,5.1-4.6,5.1S342,80.68,342,77.52s1.75-5.1,4.59-5.1,4.6,1.94,4.6,5.1m-7.44,0c0,2.3,1.09,3.73,2.84,3.73s2.85-1.43,2.85-3.73-1.08-3.73-2.85-3.73-2.84,1.43-2.84,3.73"/><path d="M367.05,76.38v6h-1.67V76.51c0-1.94-.75-2.66-2-2.66-1.41,0-2.29,1.18-2.29,3v5.48h-1.67V76.26c0-1.52-.73-2.41-2-2.41-1.43,0-2.31,1.2-2.31,3.14v5.36H353.5V72.69h1.62v1.2h0a3.19,3.19,0,0,1,2.71-1.41,2.92,2.92,0,0,1,2.87,1.82,3.3,3.3,0,0,1,3.06-1.82c2.06,0,3.26,1.29,3.26,3.9"/><path d="M378.62,77.5c0,3.09-1.58,5.08-4,5.08a3.3,3.3,0,0,1-2.95-1.6h0v4.9h-1.68V72.69h1.66v1.39h0a3.26,3.26,0,0,1,3-1.64c2.47,0,4.05,2,4.05,5.06m-7.1,0c0,2.3,1,3.73,2.63,3.73s2.72-1.46,2.72-3.73-1.07-3.71-2.72-3.71-2.63,1.43-2.63,3.71"/><path d="M388.14,76.17v3.71a10.91,10.91,0,0,0,.23,2.47h-1.53a7.37,7.37,0,0,1-.13-1.4h0a3.75,3.75,0,0,1-3.35,1.61c-2,0-3.27-1.19-3.27-2.83s.89-2.61,3.67-3c.86-.13,2-.26,2.8-.32V76a2,2,0,0,0-2.19-2.27,2,2,0,0,0-2.21,1.93h-1.67c.09-1.83,1.43-3.22,3.88-3.22s3.81,1.2,3.81,3.75m-1.62,1.46c-.74.06-1.79.18-2.53.31-1.66.25-2.23.72-2.23,1.67s.72,1.66,2,1.66a2.8,2.8,0,0,0,2-.76,2.78,2.78,0,0,0,.78-2.29Z"/><path d="M399.08,76.45v5.9H397.4V76.59c0-2-.83-2.74-2.22-2.74s-2.51,1-2.51,3v5.53H391V72.69h1.62V74h0a3.42,3.42,0,0,1,2.93-1.48c2.21,0,3.5,1.33,3.5,4"/><path d="M405.69,82.79c-.95,2.48-1.9,3.16-4,3.16a3.28,3.28,0,0,1-.87-.09V84.45a2.66,2.66,0,0,0,.8.11c1.27,0,1.77-.45,2.39-2.17l-3.67-9.7h1.81L405,80.38h0l2.81-7.69h1.77Z"/></g></svg>