<svg id="Layer_1" data-name="Layer 1" xmlns="http://www.w3.org/2000/svg" viewBox="0 0 136.9 60.82"><title>Artboard 12@6x-100</title><path d="M14.78,11.86H5.63l-2.47,5.3H.3L8.35.24H12.1l8.09,16.92H17.26ZM14,10.17l-3.79-8L6.42,10.17Z"/><path d="M24.38,0V17.16H21.72V0Z"/><path d="M30.65,0V17.16H28V0Z"/><path d="M47,11.15H35.56a4.49,4.49,0,0,0,4.64,4.79,4.25,4.25,0,0,0,4.38-3.07l2.34.14c-.41,2.64-3.17,4.62-6.81,4.62-4.16,0-7.25-2.54-7.25-6.58s3.07-6.59,7.2-6.59,7,2.41,7,6A3.2,3.2,0,0,1,47,11.15ZM44.43,9.87a4.06,4.06,0,0,0-4.37-4,4.23,4.23,0,0,0-4.45,4Z"/><path d="M49.54,5H52.2l-.12,3.14h.21a3.87,3.87,0,0,1,4.05-3.28A7.75,7.75,0,0,1,57.7,5L57.62,7.2A7.58,7.58,0,0,0,56,7c-2.44,0-3.79,1.72-3.79,4.74v5.42H49.54Z"/><path d="M73.88,18.11c0,2.71-3.23,4.33-8.23,4.33-4.59,0-7.35-1.45-7.35-3.7a2.92,2.92,0,0,1,2.32-2.68,2.26,2.26,0,0,1-1.54-2c0-1.23,1.06-2,2.73-2v-.12a3.57,3.57,0,0,1-2.29-3.17c0-2.48,2.65-4.22,6.62-4.22a9.77,9.77,0,0,1,4.06.79,3.23,3.23,0,0,1,3.53-2.63l.08,1.71c-1.48,0-2.4.49-2.66,1.48a3.54,3.54,0,0,1,1.5,2.83c0,2.46-2.54,4.17-6.38,4.17-1.69,0-2.83-.41-3.82-.41s-1.37.39-1.37,1,.85,1.11,2.32,1.11H68C71.69,14.49,73.88,15.87,73.88,18.11Zm-2.63.48c0-1.26-1.25-2-3.24-2H63.4a6.84,6.84,0,0,1-1.28-.1,2.52,2.52,0,0,0-1.21,2c0,1.67,1.94,2.73,5.08,2.73S71.25,20.14,71.25,18.59Zm-9.1-9.94c0,1.69,1.66,2.89,4,2.89,2.22,0,3.84-1.16,3.84-2.85s-1.59-2.9-4-2.9C63.79,5.79,62.15,6.93,62.15,8.65Z"/><path d="M105.22,10.36v6.8h-2.66V10.65c0-2.61-1.4-4.18-3.7-4.18s-3.79,1.62-3.79,4.33v6.36H92.41V5h2.64l0,3h.2A4.55,4.55,0,0,1,99.9,4.71C103.19,4.71,105.22,6.86,105.22,10.36Z"/><path d="M81.42,4.51c2.51,0,4.66,1.36,5.27,3.22h.12V5h2.65V17.16H86.81v-2.8h-.12c-.61,1.91-2.78,3.21-5.22,3.21-4.06,0-6.89-2.8-6.89-6.55S77.51,4.51,81.42,4.51ZM82.05,16a4.76,4.76,0,0,0,4.88-5A4.68,4.68,0,0,0,82.2,6.11a4.77,4.77,0,0,0-4.89,5A4.68,4.68,0,0,0,82.05,16Z"/><path d="M14.78,36.2H5.63L3.16,41.49H.3l8-16.9H12.1L20.19,41.5H17.26ZM14,34.51l-3.79-8-3.77,8Z"/><path d="M34.55,35.5H23.12a4.48,4.48,0,0,0,4.63,4.78,4.25,4.25,0,0,0,4.38-3.07l2.34.15C34.06,40,31.31,42,27.66,42c-4.16,0-7.25-2.53-7.25-6.57s3.07-6.6,7.2-6.6,7,2.42,7,6A3.2,3.2,0,0,1,34.55,35.5ZM32,34.22a4.06,4.06,0,0,0-4.37-4,4.23,4.23,0,0,0-4.45,4Z"/><path d="M36.32,37.65l2.39-.12c.37,1.83,2,3,4.4,3,2,0,3.31-.75,3.31-2,0-1.08-.92-1.78-2.63-2l-2.64-.32c-2.92-.36-4.2-1.71-4.2-3.53,0-2.28,2.29-3.81,5.58-3.81,3.53,0,5.87,1.71,6.13,4.18l-2.36.09c-.24-1.83-1.72-2.92-3.87-2.92-1.83,0-3,.8-3,2,0,1,.77,1.64,2.17,1.83l2.66.34C47.08,34.75,49,36,49,38.11,49,40.5,46.47,42,43,42,39.29,42,36.76,40.26,36.32,37.65Z"/><path d="M73.9,34.7v6.79H71.24V35c0-2.61-1.38-4.18-3.68-4.18s-3.79,1.62-3.79,4.33v6.35H61.12V24.33h2.65v8h.15a4.54,4.54,0,0,1,4.66-3.27C71.89,29.05,73.9,31.2,73.9,34.7Z"/><path d="M90,35.5H78.59a4.48,4.48,0,0,0,4.64,4.78,4.25,4.25,0,0,0,4.38-3.07l2.34.15C89.54,40,86.79,42,83.14,42c-4.16,0-7.25-2.53-7.25-6.57s3.07-6.6,7.2-6.6,7,2.42,7,6A3.2,3.2,0,0,1,90,35.5Zm-2.57-1.28a4.06,4.06,0,0,0-4.37-4,4.24,4.24,0,0,0-4.45,4Z"/><path d="M102.07,25.76c0-.91.73-1.49,1.82-1.49s1.84.57,1.84,1.49-.73,1.48-1.84,1.48S102.07,26.65,102.07,25.76Zm3.14,3.53v12.2h-2.65V29.29Z"/><path d="M107.94,35.42c0-4,3.21-6.61,7.51-6.61,3.94,0,6.74,2.17,7,5.12l-2.54.09a4.27,4.27,0,0,0-4.49-3.57,4.66,4.66,0,0,0-4.76,4.9,4.65,4.65,0,0,0,4.83,4.88c2.42,0,4.37-1.45,4.61-3.52l2.49.07c-.26,2.92-3,5.19-7.15,5.19S107.94,39.48,107.94,35.42Z"/><path d="M124.22,37.65l2.39-.12c.36,1.83,2,3,4.4,3,2,0,3.31-.75,3.31-2,0-1.08-.92-1.78-2.64-2l-2.63-.32c-2.92-.36-4.2-1.71-4.2-3.53,0-2.28,2.29-3.81,5.58-3.81,3.52,0,5.87,1.71,6.13,4.18l-2.36.09c-.25-1.83-1.72-2.92-3.87-2.92-1.84,0-3,.8-3,2,0,1,.77,1.64,2.17,1.83l2.66.34c2.86.34,4.78,1.55,4.78,3.7,0,2.39-2.53,3.84-6,3.84C127.19,42,124.65,40.26,124.22,37.65Z"/><path d="M53.92,31H58.1V29.29H53.92V26H51.29V37c0,3.21,1.74,4.73,4.39,4.73a10.29,10.29,0,0,0,2.47-.28l0-1.87a7,7,0,0,1-1.64.22c-1.67,0-2.61-1.11-2.61-3.09Z"/><path d="M95.05,31h4.18V29.29H95.05V26H92.42V37c0,3.21,1.73,4.73,4.39,4.73a10.29,10.29,0,0,0,2.47-.28l0-1.87a7,7,0,0,1-1.64.22c-1.67,0-2.61-1.11-2.61-3.09Z"/><path d="M5.06,54.72V57a7.33,7.33,0,0,0,.14,1.55h-1a4.37,4.37,0,0,1-.08-.88h0a2.35,2.35,0,0,1-2.1,1,1.82,1.82,0,0,1-2-1.77c0-1,.57-1.63,2.29-1.9.53-.09,1.27-.17,1.75-.2V54.6a1.26,1.26,0,0,0-1.37-1.42,1.23,1.23,0,0,0-1.38,1.2h-1a2.14,2.14,0,0,1,2.43-2A2.11,2.11,0,0,1,5.06,54.72Zm-1,.91c-.46,0-1.12.11-1.58.19-1,.15-1.39.45-1.39,1s.45,1,1.24,1a1.73,1.73,0,0,0,1.24-.48A1.73,1.73,0,0,0,4.05,56Z"/><path d="M11.89,54.91v3.68H10.84V55c0-1.26-.52-1.72-1.38-1.72s-1.57.64-1.57,1.85v3.46h-1v-6h1v.79h0a2.11,2.11,0,0,1,1.83-.92C11.08,52.41,11.89,53.24,11.89,54.91Z"/><path d="M17.64,56.05l-.93,2.52H15.55l3.21-8.46h1.5l3.22,8.46H22.3l-.93-2.52Zm3.1-1.71c-.43-1.18-.82-2.27-1.22-3.44h0c-.4,1.18-.79,2.27-1.22,3.44l-.28.77h3Z"/><path d="M25.5,53.37a2.06,2.06,0,0,1,1.85-1c1.53,0,2.51,1.23,2.51,3.16s-1,3.17-2.53,3.17a2,2,0,0,1-1.84-1h0v.88h-1V50.12h1.05v3.25Zm-.07,2.18c0,1.43.64,2.33,1.64,2.33s1.7-.92,1.7-2.33-.66-2.32-1.7-2.32S25.43,54.12,25.43,55.55Z"/><path d="M32.35,53.37a2.06,2.06,0,0,1,1.84-1c1.53,0,2.52,1.23,2.52,3.16s-1,3.17-2.54,3.17a2,2,0,0,1-1.84-1h0v.88h-1V50.12h1v3.25Zm-.07,2.18c0,1.43.64,2.33,1.63,2.33s1.7-.92,1.7-2.33-.66-2.32-1.7-2.32-1.64.89-1.64,2.32Z"/><path d="M39.7,58.58l-2.91-8.46h1.14l1.3,3.76c.41,1.2.8,2.41,1.18,3.63h0c.38-1.22.77-2.43,1.19-3.63l1.28-3.76H44l-2.91,8.46Z"/><path d="M45.06,51.3V50.12h1V51.3Zm0,7.28v-6h1v6Z"/><path d="M51.94,56.77H53a2.5,2.5,0,0,1-2.66,2c-1.78,0-2.83-1.29-2.83-3.26a2.79,2.79,0,0,1,2.8-3.1A2.55,2.55,0,0,1,53,54.48a5.59,5.59,0,0,1,.12,1.29h-4.5c0,1.49.81,2.17,1.79,2.17A1.49,1.49,0,0,0,51.94,56.77ZM48.57,55H52a1.73,1.73,0,0,0-1.72-1.8A1.77,1.77,0,0,0,48.57,55Z"/><path d="M62.2,54.68H61.1a1.47,1.47,0,0,0-1.49-1.45c-1.07,0-1.72.89-1.72,2.33s.65,2.33,1.72,2.33a1.54,1.54,0,0,0,1.49-1.54h1.1a2.5,2.5,0,0,1-2.58,2.39c-1.74,0-2.83-1.22-2.83-3.18s1.09-3.18,2.83-3.18A2.46,2.46,0,0,1,62.2,54.68Z"/><path d="M68.93,55.56c0,2-1.1,3.18-2.86,3.18s-2.86-1.21-2.86-3.18,1.09-3.18,2.86-3.18S68.93,53.59,68.93,55.56Zm-4.64,0c0,1.43.68,2.33,1.77,2.33s1.78-.89,1.78-2.33-.68-2.33-1.78-2.33-1.76.89-1.76,2.33Z"/><path d="M78.8,54.85v3.72h-1V54.93c0-1.21-.47-1.66-1.24-1.66s-1.43.73-1.43,1.89v3.43h-1V54.78c0-1-.45-1.51-1.23-1.51s-1.43.75-1.43,2v3.35h-1v-6h1v.75h0a2,2,0,0,1,1.69-.88,1.83,1.83,0,0,1,1.79,1.14,2.08,2.08,0,0,1,1.91-1.14C78.05,52.41,78.8,53.22,78.8,54.85Z"/><path d="M86,55.55c0,1.92-1,3.17-2.52,3.17a2.06,2.06,0,0,1-1.84-1h0v3.05H80.6V52.54h1v.86h0a2,2,0,0,1,1.84-1C85,52.39,86,53.62,86,55.55Zm-4.43,0c0,1.43.64,2.33,1.64,2.33s1.7-.92,1.7-2.33-.67-2.32-1.7-2.32-1.65.89-1.65,2.32Z"/><path d="M92,54.72V57a6.74,6.74,0,0,0,.15,1.55h-1a4.38,4.38,0,0,1-.09-.88h0a2.35,2.35,0,0,1-2.09,1,1.83,1.83,0,0,1-2-1.77c0-1,.58-1.63,2.29-1.9.54-.09,1.27-.17,1.75-.2V54.6a1.26,1.26,0,0,0-1.37-1.42,1.23,1.23,0,0,0-1.38,1.2h-1a2.14,2.14,0,0,1,2.43-2A2.11,2.11,0,0,1,92,54.72Zm-1,.91c-.46,0-1.11.11-1.58.19-1,.15-1.39.45-1.39,1s.46,1,1.24,1a1.73,1.73,0,0,0,1.25-.48A1.76,1.76,0,0,0,91,56Z"/><path d="M98.79,54.91v3.68h-1V55c0-1.26-.53-1.72-1.39-1.72s-1.57.64-1.57,1.85v3.46h-1v-6h1v.79h0a2.14,2.14,0,0,1,1.83-.92C98,52.41,98.79,53.24,98.79,54.91Z"/><path d="M102.9,58.85c-.59,1.54-1.18,2-2.48,2a1.72,1.72,0,0,1-.55-.06v-.88a1.47,1.47,0,0,0,.5.07c.8,0,1.11-.28,1.5-1.35l-2.29-6.06h1.13l1.74,4.8h0l1.76-4.8h1.1Z"/></svg>