<svg id="Layer_1" data-name="Layer 1" xmlns="http://www.w3.org/2000/svg" xmlns:xlink="http://www.w3.org/1999/xlink" viewBox="0 0 710.1 812.4"><defs><style>.cls-1{fill:url(#linear-gradient);}.cls-2{fill:url(#linear-gradient-2);}.cls-3{fill:url(#linear-gradient-3);}.cls-4{fill:#591960;}</style><linearGradient id="linear-gradient" x1="10.36" y1="405.77" x2="246.17" y2="405.77" gradientUnits="userSpaceOnUse"><stop offset="0" stop-color="#00b0b9"/><stop offset="0.01" stop-color="#02adb7"/><stop offset="0.18" stop-color="#1c809d"/><stop offset="0.35" stop-color="#325b87"/><stop offset="0.51" stop-color="#433e76"/><stop offset="0.68" stop-color="#4f2a6a"/><stop offset="0.84" stop-color="#571d62"/><stop offset="1" stop-color="#591960"/></linearGradient><linearGradient id="linear-gradient-2" x1="56.58" y1="334.07" x2="133.29" y2="334.07" gradientUnits="userSpaceOnUse"><stop offset="0" stop-color="#00b0b9"/><stop offset="0.28" stop-color="#157c93"/><stop offset="0.61" stop-color="#2c4369"/><stop offset="0.87" stop-color="#3b1f4e"/><stop offset="1" stop-color="#401144"/></linearGradient><linearGradient id="linear-gradient-3" x1="115.82" y1="379.96" x2="169.25" y2="379.96" xlink:href="#linear-gradient-2"/></defs><title>Artboard 1@4x41</title><path class="cls-1" d="M213.57,456c-20,.82-44.33,22-73.36,39.87q-4.14,2.64-8.21,5.2a52.44,52.44,0,0,0,5.16-8.14c2-4.23,3.57-8.47,5.31-12.71,6.52-16.15,13.37-34.94,20.2-50.89a81.85,81.85,0,0,1,15-22.52l.13-.14v-.17c0-.19,0-1.61,0-1.73h-.41L158,405.1c0,.48,0,1,0,1.46l0,.05c4.58,3.5,5.37,9.57,4.17,14.92-1.48,7.3-4.59,14.13-7.35,21.05L144,469.29l-13-30.91c-3.06-7.95-7.37-15.69-9.17-24a8.33,8.33,0,0,1,2.37-7.6v-2.27h-.69l-25-.07-.77,0c0,.66,0,1.82,0,2.46,5.89,4.68,9.78,11.16,12.91,17.91,6.23,13.6,19.68,46.62,25.86,61.14a33.92,33.92,0,0,1-9.07,15.7c-.42.43-1.29,1.26-1.69,1.67,0,0,0,0-.08.09h0a.54.54,0,0,0-.14.13h0a34.85,34.85,0,0,1-2.82,2.47,75.65,75.65,0,0,1-6.38,4.95l-.17.11c-15.71,9.41-30.32,16.42-43.69,16.14-14.51,0-21.19-9.77-22-23.19-1.82-22.64,24.06-32.32,48.49-34.58a56.7,56.7,0,0,1,8.14,0h1.42c1.38,0,2.72,0,4.1-.07.26,0,.54-.05.86-.05,1.3-.07,2.6-.15,3.91-.26L118,469l-1.64-3.91c-.23,0-.47,0-.72-.05l-2.07-.18a6.93,6.93,0,0,1-1.19-.11C80,460.83,54.62,430.83,43.69,392.14a145.41,145.41,0,0,1-4.33-21.76c-.09-.46-.13-.9-.18-1.36-4.62-41.11,9.93-79.07,47.67-90.38a65.61,65.61,0,0,1,25.49-2.6c.44,0,.84.08,1.23.15,32.32,4,57.76,33.74,68.61,72.43A147.12,147.12,0,0,1,186.34,369c.07.47.11.94.2,1.4,3.25,27.24-1.91,53.19-16.43,71.07l-4.34,10.79c28.55-18.23,49.41-50.1,49.41-90.62,0-37-19.67-64.27-47.91-78.5-2.06-.94-4.15-1.91-6.27-2.85a111.78,111.78,0,0,0-43.95-8.95c-1.2,0-2.46,0-3.67.08a8.43,8.43,0,0,0-.86,0c-51.08,2.25-102.16,42.48-102.16,107.7,0,51.64,37.25,83.39,83.17,89.07-27.46,2.85-65.14,16.27-64.35,41.09.4,18.71,16.08,26.45,36.89,24.8,18.43-1.2,38.05-11.78,56.09-23.17,9.43,13.42,23.16,29.29,51.4,29.29,33.33,0,72.61-20.74,72.61-52.89C246.17,469.42,237.15,455.59,213.57,456Zm8.62,38.24c-1.57,26.85-18.44,43.52-48.63,43.13-29.05-.43-41.19-17.1-48.65-28.48,5.87-3.67,11.76-7.32,17.65-11,22.76-14.64,47.87-32.12,60-33.74C218.27,461.7,223,475.52,222.19,494.24Z"/><path class="cls-2" d="M56.58,335.14c.92.05,1.83.12,2.72.18l.8.07c26.91,2.48,33.44,15.09,34.78,42.06,0,.11,0,.24,0,.36,0,.65,0,.89,0,1.54l.46,0c0-.63,0-.86,0-1.47,0-.12,0-.21,0-.33,1.34-27.12,7.87-39.74,35.08-42.16.17,0,.32,0,.48-.05l2.25-.16v-.33c-.79,0-1.57-.08-2.33-.15-.15,0-.33,0-.48,0-27.2-2.4-33.71-16.47-35-43.6,0-.66-.07-1.36-.1-2.05v-.2a2.88,2.88,0,0,0-.41,0V289c0,.71,0,1.37-.07,2-1.31,27.12-7.79,41.25-34.9,43.65l-.76.07c-.86.06-1.76.13-2.66.16Z"/><path class="cls-3" d="M169.25,380.47v.25c-.51,0-1.05.06-1.55.11a1.83,1.83,0,0,0-.34,0c-19,1.69-23.51,10.48-24.44,29.38,0,.07,0,.15,0,.23,0,.42,0,.59,0,1h-.3c0-.44,0-.61,0-1.07,0-.08,0-.17,0-.25-.1-1.76-.21-3.42-.37-5v0c-1-9.54-3.4-16-9.19-19.91-3.52-2.35-8.27-3.76-14.67-4.36a5.27,5.27,0,0,0-.56,0l-1.89-.13v-.19l1.86-.11.51-.06c18.9-1.67,23.41-11.51,24.33-30.41,0-.46,0-.92,0-1.41v-.1h.28v.13c0,.48.06,1,.08,1.42.9,18.91,5.43,28.7,24.38,30.39a1.83,1.83,0,0,1,.33,0Z"/><path class="cls-4" d="M308,393c24.08,0,36.56-13,40.14-20.68l0-13.64c0-4.56.93-6,2.53-7l.21-.13v-1.66h-23v1.82l.41,0c5.84.36,9.19,4.83,9.19,12.28v16.41a27.27,27.27,0,0,1-16.82,8.71c-21.21,2.74-38-8.88-44.77-31.1-4-13.2-2.85-27.18,3.15-37.4a28.44,28.44,0,0,1,18.83-13.89c17.07-3.66,31.76,8.71,39.8,21.49l.12.2h1.44L343,313.9l.07-.29-.25-.17c-10.38-6.84-18.61-10.54-32.39-10.54-25.69,0-47.4,20.62-47.4,45A45,45,0,0,0,308,393Z"/><path class="cls-4" d="M373.57,390.68l-.2-.12c-1.57-.94-2.54-2.43-2.54-7v-82h-1.39l-12.05,2.69v1.71l.36.05c2,.32,2.38,1.21,2.38,5.56v72c0,4.55-1,6.05-2.53,7l-.21.12v1.55h16.18Z"/><path class="cls-4" d="M412.27,393c16.44,0,34.2-12.78,34.2-33.44,0-18.45-15.89-28.09-31.59-28.09-16.8,0-34.19,12.51-34.19,33.44C380.69,381.42,393.68,393,412.27,393Zm22.89-37.31c3.9,13.49,1.37,29.95-13.42,34.23a19.85,19.85,0,0,1-15.49-1.52c-6.45-3.51-11.64-10.66-14.25-19.62-3.91-13.49-1.37-29.95,13.41-34.23a21.42,21.42,0,0,1,6-.89C423.27,333.63,431.84,344.29,435.16,355.66Z"/><path class="cls-4" d="M461.34,355.58,476.79,392l.11.26h10.77l-3.93-9.3,9.81-31.57L509.06,392l.1.28h10.76l-4.15-10.77,11-28.87c3.87-9.21,7.34-14.65,12.36-19.42l.13-.13v-1.6H523.73v1.63l.16.13c5.49,4.39,4.19,11.27-.13,22.44L514.94,379l-11.31-29.35-.27-.72c-3.2-8.64-4.52-12.22-1.07-15.78l.12-.13v-1.59H482.36v1.62l.16.13c4.74,3.89,6.94,8,10,15.64l-9.94,31.64-14.5-34.07c-2.95-7.18-3.78-10.18-.84-13.24l.12-.13v-1.59h-20v1.62l.15.13C453.46,338.06,456,343.2,461.34,355.58Z"/><path class="cls-4" d="M321.58,430.52c6.29-13.33,8.9-15.86,14.71-20.79l.16-.13V408H320.89v1.63l.15.12c4.34,3.62,4.91,6.78-.24,18.31l-16.58,35.23-19.53-36.75c-4.38-8.17-4.88-13.51-1.58-16.81l.13-.13V408H260.58v1.62l.15.13c3.54,3,7.95,7,10.74,12.08,2.52,4.93,22.35,42.12,23.5,44.27v21.33c0,4.55-1,6-2.54,7l-.2.13v1.54h16.3v-1.55l-.21-.12c-1.64-.92-2.65-2.41-2.65-7V464.7Z"/><path class="cls-4" d="M359.81,435.27c-16.81,0-34.19,12.51-34.19,33.45,0,16.54,13,28.09,31.58,28.09,16.44,0,34.19-12.79,34.19-33.45C391.39,444.92,375.51,435.27,359.81,435.27Zm-8.63,56.93c-6.45-3.51-11.64-10.66-14.25-19.61-3.91-13.49-1.37-30,13.41-34.24a21.71,21.71,0,0,1,6-.88c11.84,0,20.41,10.65,23.73,22,3.9,13.49,1.37,29.95-13.42,34.24A19.85,19.85,0,0,1,351.18,492.2Z"/><path class="cls-4" d="M450.33,487.41V435.27h-1.4l-12,2.82v1.58l.36.05c2,.32,2.38,1.2,2.38,5.56v9.6c0,13.24-3.39,36.33-16.1,38.83-4,.74-7.41,0-10.12-2.28-3.62-3-5.7-8.52-5.7-15.12V435.27h-1.4l-12,2.82v1.58l.36.05c2,.32,2.38,1.2,2.38,5.56v29.16c0,13.79,8,22.36,21,22.36,14.48,0,19.51-13.14,21.63-25.38v24.63h13.56v-1.55l-.21-.12C451.34,493.47,450.33,492,450.33,487.41Z"/><path class="cls-4" d="M515,487.36c-.24-2.21-.65-6.37-1.15-11.43-.54-5.49-1.19-12.05-1.84-18.35-1.4-14-9.19-22.31-20.86-22.31-14.47,0-19.5,13.1-21.63,25.29V435.27h-1.39l-12.05,2.82v1.58l.36.05c2,.32,2.38,1.2,2.38,5.56v42.12c0,4.55-1,6-2.53,7l-.21.13v1.54h16.31v-1.55l-.22-.12c-1.63-.92-2.65-2.41-2.65-7V477.19c0-1.46.19-35.68,16.23-38.83a10.59,10.59,0,0,1,8.73,1.74c5.33,4,6.64,12.3,7,15.7.46,4.8,1.63,17.83,2.32,25.61l.55,6c.37,4.07-.15,5.95-1.91,6.94l-.21.12v1.55h16.3v-1.54l-.2-.13C516.62,493.4,515.49,491.88,515,487.36Z"/><path class="cls-4" d="M583.83,491.84c-4.76.19-10.15,3.7-16.38,7.77-2.29,1.49-4.65,3-7.13,4.5l-2.23,1.37c-6.83,4.2-13.29,8.17-18.88,8.17H539c-5.34,0-6.39-4.2-6.55-6.72a6.69,6.69,0,0,1,1.68-5.11c2.55-2.89,8.17-4.81,15-5.13a5.23,5.23,0,0,0,1.29.12c16.5,0,34.32-12.79,34.32-33.45a26.26,26.26,0,0,0-14-23.69l18.92-.82-.86-7.2L567.17,438a36.76,36.76,0,0,0-14-2.72c-16.87,0-34.32,12.51-34.32,33.45,0,14,9.28,24.43,23.89,27.26-8.2,1.41-18.15,5.5-17.91,12.62a7.44,7.44,0,0,0,2.37,5.57c2.13,1.92,5.54,2.77,9.8,2.45,6-.39,12.29-3.7,17.68-7,3.27,4.42,7.81,8.83,16.43,8.83,11.11,0,23.48-6.83,23.48-16.63a10.08,10.08,0,0,0-2.65-7.37C590.11,492.67,587.39,491.77,583.83,491.84ZM556.29,508.6l5.23-3.13,3.28-2.06c6.1-3.84,12.42-7.81,15.61-8.23h0a4.45,4.45,0,0,1,3.78.89c1.47,1.32,2.13,4,1.95,7.88-.49,8.16-5.83,12.81-14.68,12.81h-.33C562.13,516.64,558.35,511.6,556.29,508.6Zm17.17-49.11c3.9,13.46,1.36,29.92-13.41,34.24h0a19.85,19.85,0,0,1-15.49-1.53c-6.44-3.51-11.64-10.66-14.25-19.61-3.9-13.49-1.37-30,13.41-34.24a21.77,21.77,0,0,1,6-.88C561.57,437.47,570.15,448.12,573.46,459.49Z"/><path class="cls-4" d="M639.81,455.81h9.55l-.05-.48c-1.69-14.59-15.36-20.63-27.37-20.06-13.63.74-33.69,9.9-33.05,32.09.53,21.71,18.27,29.45,34.7,29.45,18.3,0,26-12.53,26.72-20.95C651.23,465.38,646,458.54,639.81,455.81Zm-39.56,0h31.94a16.1,16.1,0,0,1,12,5.31c2.35,2.63,5,7.36,4.1,14.89-1.19,9.31-10.18,16.7-20.9,17.2-13,.51-21.84-5.56-26.24-18A35.79,35.79,0,0,1,600.25,455.81ZM639.41,454H600.72c2.54-9,8.24-14.92,15.72-16.35a18.72,18.72,0,0,1,14.69,3A20.61,20.61,0,0,1,639.41,454Z"/><path class="cls-4" d="M699.55,442.77c-3.94-4.63-7.85-7.5-15.16-7.5-9.22,0-15,8.56-17.51,26.1v-26.1h-1.52l-12.05,2.82v1.58l.37.05c2.1.32,2.5,1.2,2.5,5.56v42.12c0,4.57-1,6.06-2.65,7l-.22.12v1.55h16.31v-1.54l-.21-.13c-1.56-.94-2.53-2.43-2.53-7v-4.86c0-15.65,2.83-42.56,13.46-44.19a6,6,0,0,1,4.82,1.41c3.33,2.78,5,8.79,5.16,13.51v.24l1.42.81,8-11.31Z"/></svg>